<svg xmlns="http://www.w3.org/2000/svg" xmlns:xlink="http://www.w3.org/1999/xlink" width="500" zoomAndPan="magnify" viewBox="0 0 375 374.999991" height="500" preserveAspectRatio="xMidYMid meet" version="1.0"><defs><g/><clipPath id="6b5dda233f"><path d="M 74.25 0 L 300 0 C 341.421875 0 375 33.578125 375 75 L 375 300 C 375 341.421875 341.421875 375 300 375 L 74.25 375 C 32.828125 375 -0.75 341.421875 -0.75 300 L -0.75 75 C -0.75 33.578125 32.828125 0 74.25 0 Z M 74.25 0 " clip-rule="nonzero"/></clipPath><clipPath id="ee3d4319e6"><path d="M 237.1875 212.308594 L 350.4375 212.308594 L 350.4375 325.558594 L 237.1875 325.558594 Z M 237.1875 212.308594 " clip-rule="nonzero"/></clipPath><clipPath id="d60203b438"><path d="M 274.683594 212.308594 L 312.574219 212.308594 C 333.285156 212.308594 350.074219 229.09375 350.074219 249.804688 L 350.074219 288.316406 C 350.074219 309.027344 333.285156 325.816406 312.574219 325.816406 L 274.683594 325.816406 C 253.972656 325.816406 237.1875 309.027344 237.1875 288.316406 L 237.1875 249.804688 C 237.1875 229.09375 253.972656 212.308594 274.683594 212.308594 Z M 274.683594 212.308594 " clip-rule="nonzero"/></clipPath><clipPath id="7b7c21b67b"><path d="M 237.1875 47.300781 L 350.4375 47.300781 L 350.4375 160.550781 L 237.1875 160.550781 Z M 237.1875 47.300781 " clip-rule="nonzero"/></clipPath><clipPath id="f2033adc3f"><path d="M 274.683594 47.300781 L 312.574219 47.300781 C 333.285156 47.300781 350.074219 64.089844 350.074219 84.800781 L 350.074219 123.3125 C 350.074219 144.023438 333.285156 160.808594 312.574219 160.808594 L 274.683594 160.808594 C 253.972656 160.808594 237.1875 144.023438 237.1875 123.3125 L 237.1875 84.800781 C 237.1875 64.089844 253.972656 47.300781 274.683594 47.300781 Z M 274.683594 47.300781 " clip-rule="nonzero"/></clipPath></defs><g clip-path="url(#6b5dda233f)"><path stroke-linecap="butt" transform="matrix(0.75, 0, 0, 0.75, -0.749992, 0)" fill="none" stroke-linejoin="miter" d="M 99.99999 0 L 400.99999 0 C 456.229157 0 500.99999 44.770833 500.99999 100 L 500.99999 400.000001 C 500.99999 455.229167 456.229157 500.000001 400.99999 500.000001 L 99.99999 500.000001 C 44.770823 500.000001 -0.0000106417 455.229167 -0.0000106417 400.000001 L -0.0000106417 100 C -0.0000106417 44.770833 44.770823 0 99.99999 0 Z M 99.99999 0 " stroke="#1e3a8a" stroke-width="40" stroke-opacity="1" stroke-miterlimit="4"/></g><g clip-path="url(#ee3d4319e6)"><g clip-path="url(#d60203b438)"><path stroke-linecap="butt" transform="matrix(0.75, 0, 0, 0.75, 237.18614, 212.307348)" fill="none" stroke-linejoin="miter" d="M 49.996611 0.00166039 L 100.517451 0.00166039 C 128.132038 0.00166039 150.517458 22.381872 150.517458 49.996459 L 150.517458 101.345424 C 150.517458 128.96001 128.132038 151.34543 100.517451 151.34543 L 49.996611 151.34543 C 22.382024 151.34543 0.00181317 128.96001 0.00181317 101.345424 L 0.00181317 49.996459 C 0.00181317 22.381872 22.382024 0.00166039 49.996611 0.00166039 Z M 49.996611 0.00166039 " stroke="#1e3a8a" stroke-width="40" stroke-opacity="1" stroke-miterlimit="4"/></g></g><g fill="#1e3a8a" fill-opacity="1"><g transform="translate(18.876939, 322.184511)"><g><path d="M 7.875 -108.25 L 39.234375 -108.25 C 54.273438 -108.25 67.132812 -103.109375 77.8125 -92.828125 C 88.488281 -82.554688 93.828125 -69.675781 93.828125 -54.1875 C 93.828125 -38.625 88.507812 -25.703125 77.875 -15.421875 C 67.25 -5.140625 54.367188 0 39.234375 0 L 7.875 0 Z M 32.546875 -22.046875 L 36.34375 -22.046875 C 45.351562 -22.046875 52.722656 -25.082031 58.453125 -31.15625 C 64.179688 -37.238281 67.09375 -44.875 67.1875 -54.0625 C 67.1875 -63.25 64.320312 -70.898438 58.59375 -77.015625 C 52.863281 -83.140625 45.445312 -86.203125 36.34375 -86.203125 L 32.546875 -86.203125 Z M 32.546875 -22.046875 "/></g></g></g><g fill="#1e3a8a" fill-opacity="1"><g transform="translate(96.423324, 322.184511)"><g><path d="M 3.015625 -54.1875 C 3.015625 -69.851562 8.347656 -83.109375 19.015625 -93.953125 C 29.691406 -104.796875 42.554688 -110.21875 57.609375 -110.21875 C 72.742188 -110.21875 85.601562 -104.816406 96.1875 -94.015625 C 106.769531 -83.210938 112.0625 -69.9375 112.0625 -54.1875 C 112.0625 -38.351562 106.851562 -25.035156 96.4375 -14.234375 C 86.03125 -3.429688 73.085938 1.96875 57.609375 1.96875 C 41.773438 1.96875 28.71875 -3.390625 18.4375 -14.109375 C 8.15625 -24.828125 3.015625 -38.1875 3.015625 -54.1875 Z M 29.65625 -54.1875 C 29.65625 -48.507812 30.53125 -43.328125 32.28125 -38.640625 C 34.03125 -33.960938 37.09375 -30.003906 41.46875 -26.765625 C 45.84375 -23.523438 51.222656 -21.90625 57.609375 -21.90625 C 66.796875 -21.90625 73.726562 -25.054688 78.40625 -31.359375 C 83.082031 -37.660156 85.421875 -45.269531 85.421875 -54.1875 C 85.421875 -63.03125 83.035156 -70.617188 78.265625 -76.953125 C 73.503906 -83.296875 66.617188 -86.46875 57.609375 -86.46875 C 48.679688 -86.46875 41.789062 -83.296875 36.9375 -76.953125 C 32.082031 -70.617188 29.65625 -63.03125 29.65625 -54.1875 Z M 29.65625 -54.1875 "/></g></g></g><g fill="#1e3a8a" fill-opacity="1"><g transform="translate(264.096433, 301.712675)"><g><path d="M 61.5625 0 L 43.578125 0 L 29.15625 -20.796875 L 14.71875 0 L -2.515625 0 L 20.578125 -32.859375 L 1.328125 -61.046875 L 17.90625 -61.046875 L 29.15625 -44.40625 L 40.40625 -61.046875 L 57.71875 -61.046875 L 37.734375 -32.859375 Z M 61.5625 0 "/></g></g></g><g fill="#1e3a8a" fill-opacity="1"><g transform="translate(26.217886, 159.429745)"><g><path d="M 1.046875 -86.609375 L 1.046875 -108.25 L 77.15625 -108.25 L 77.15625 -86.609375 L 51.4375 -86.609375 L 51.4375 0 L 26.765625 0 L 26.765625 -86.609375 Z M 1.046875 -86.609375 "/></g></g></g><g fill="#1e3a8a" fill-opacity="1"><g transform="translate(96.417383, 159.429745)"><g><path d="M 3.015625 -54.1875 C 3.015625 -69.851562 8.347656 -83.109375 19.015625 -93.953125 C 29.691406 -104.796875 42.554688 -110.21875 57.609375 -110.21875 C 72.742188 -110.21875 85.601562 -104.816406 96.1875 -94.015625 C 106.769531 -83.210938 112.0625 -69.9375 112.0625 -54.1875 C 112.0625 -38.351562 106.851562 -25.035156 96.4375 -14.234375 C 86.03125 -3.429688 73.085938 1.96875 57.609375 1.96875 C 41.773438 1.96875 28.71875 -3.390625 18.4375 -14.109375 C 8.15625 -24.828125 3.015625 -38.1875 3.015625 -54.1875 Z M 29.65625 -54.1875 C 29.65625 -48.507812 30.53125 -43.328125 32.28125 -38.640625 C 34.03125 -33.960938 37.09375 -30.003906 41.46875 -26.765625 C 45.84375 -23.523438 51.222656 -21.90625 57.609375 -21.90625 C 66.796875 -21.90625 73.726562 -25.054688 78.40625 -31.359375 C 83.082031 -37.660156 85.421875 -45.269531 85.421875 -54.1875 C 85.421875 -63.03125 83.035156 -70.617188 78.265625 -76.953125 C 73.503906 -83.296875 66.617188 -86.46875 57.609375 -86.46875 C 48.679688 -86.46875 41.789062 -83.296875 36.9375 -76.953125 C 32.082031 -70.617188 29.65625 -63.03125 29.65625 -54.1875 Z M 29.65625 -54.1875 "/></g></g></g><g clip-path="url(#7b7c21b67b)"><g clip-path="url(#f2033adc3f)"><path stroke-linecap="butt" transform="matrix(0.75, 0, 0, 0.75, 237.18614, 47.30261)" fill="none" stroke-linejoin="miter" d="M 49.996611 -0.00243793 L 100.517451 -0.00243793 C 128.132038 -0.00243793 150.517458 22.382982 150.517458 49.997569 L 150.517458 101.346534 C 150.517458 128.96112 128.132038 151.341332 100.517451 151.341332 L 49.996611 151.341332 C 22.382024 151.341332 0.00181317 128.96112 0.00181317 101.346534 L 0.00181317 49.997569 C 0.00181317 22.382982 22.382024 -0.00243793 49.996611 -0.00243793 Z M 49.996611 -0.00243793 " stroke="#1e3a8a" stroke-width="40" stroke-opacity="1" stroke-miterlimit="4"/></g></g></svg>