<svg xmlns="http://www.w3.org/2000/svg" xmlns:xlink="http://www.w3.org/1999/xlink" width="500" zoomAndPan="magnify" viewBox="0 0 375 187.499995" height="250" preserveAspectRatio="xMidYMid meet" version="1.0"><defs><g/><clipPath id="08d84730c3"><rect x="0" width="342" y="0" height="119"/></clipPath></defs><g transform="matrix(1, 0, 0, 1, 17, 34)"><g clip-path="url(#08d84730c3)"><g fill="#1e3a8a" fill-opacity="1"><g transform="translate(1.01601, 93.186755)"><g><path d="M 62.828125 -67.28125 L 36.484375 -67.28125 L 36.484375 0 L 27.9375 0 L 27.9375 -67.28125 L 1.59375 -67.28125 L 1.59375 -75.484375 L 62.828125 -75.484375 Z M 62.828125 -67.28125 "/></g></g></g><g fill="#1e3a8a" fill-opacity="1"><g transform="translate(59.72899, 93.186755)"><g><path d="M 32.15625 -57.921875 C 40.664062 -57.921875 47.582031 -55.070312 52.90625 -49.375 C 57.925781 -43.90625 60.4375 -36.953125 60.4375 -28.515625 C 60.4375 -20.066406 57.925781 -13.109375 52.90625 -7.640625 C 47.582031 -1.941406 40.664062 0.90625 32.15625 0.90625 C 23.644531 0.90625 16.726562 -1.941406 11.40625 -7.640625 C 6.382812 -13.109375 3.875 -20.066406 3.875 -28.515625 C 3.875 -36.953125 6.382812 -43.90625 11.40625 -49.375 C 16.726562 -55.070312 23.644531 -57.921875 32.15625 -57.921875 Z M 32.15625 -6.84375 C 38.3125 -6.84375 43.175781 -8.972656 46.75 -13.234375 C 50.175781 -17.253906 51.890625 -22.347656 51.890625 -28.515625 C 51.890625 -34.671875 50.175781 -39.757812 46.75 -43.78125 C 43.175781 -48.039062 38.3125 -50.171875 32.15625 -50.171875 C 26 -50.171875 21.132812 -48.039062 17.5625 -43.78125 C 14.132812 -39.757812 12.421875 -34.671875 12.421875 -28.515625 C 12.421875 -22.347656 14.132812 -17.253906 17.5625 -13.234375 C 21.132812 -8.972656 26 -6.84375 32.15625 -6.84375 Z M 32.15625 -6.84375 "/></g></g></g><g fill="#1e3a8a" fill-opacity="1"><g transform="translate(118.327957, 93.186755)"><g/></g></g><g fill="#1e3a8a" fill-opacity="1"><g transform="translate(136.909838, 93.186755)"><g><path d="M 41.046875 -75.484375 C 45.535156 -75.484375 49.867188 -74.628906 54.046875 -72.921875 C 58.234375 -71.210938 61.921875 -68.722656 65.109375 -65.453125 C 72.179688 -58.234375 75.71875 -49 75.71875 -37.75 C 75.71875 -26.5 72.179688 -17.257812 65.109375 -10.03125 C 61.921875 -6.757812 58.234375 -4.269531 54.046875 -2.5625 C 49.867188 -0.851562 45.535156 0 41.046875 0 L 9.234375 0 L 9.234375 -75.484375 Z M 40.703125 -8.09375 C 48.609375 -8.09375 55.035156 -11.019531 59.984375 -16.875 C 64.773438 -22.5 67.171875 -29.457031 67.171875 -37.75 C 67.171875 -46.03125 64.773438 -52.984375 59.984375 -58.609375 C 55.035156 -64.460938 48.609375 -67.390625 40.703125 -67.390625 L 17.78125 -67.390625 L 17.78125 -8.09375 Z M 40.703125 -8.09375 "/></g></g></g><g fill="#1e3a8a" fill-opacity="1"><g transform="translate(211.470029, 93.186755)"><g><path d="M 32.15625 -57.921875 C 40.664062 -57.921875 47.582031 -55.070312 52.90625 -49.375 C 57.925781 -43.90625 60.4375 -36.953125 60.4375 -28.515625 C 60.4375 -20.066406 57.925781 -13.109375 52.90625 -7.640625 C 47.582031 -1.941406 40.664062 0.90625 32.15625 0.90625 C 23.644531 0.90625 16.726562 -1.941406 11.40625 -7.640625 C 6.382812 -13.109375 3.875 -20.066406 3.875 -28.515625 C 3.875 -36.953125 6.382812 -43.90625 11.40625 -49.375 C 16.726562 -55.070312 23.644531 -57.921875 32.15625 -57.921875 Z M 32.15625 -6.84375 C 38.3125 -6.84375 43.175781 -8.972656 46.75 -13.234375 C 50.175781 -17.253906 51.890625 -22.347656 51.890625 -28.515625 C 51.890625 -34.671875 50.175781 -39.757812 46.75 -43.78125 C 43.175781 -48.039062 38.3125 -50.171875 32.15625 -50.171875 C 26 -50.171875 21.132812 -48.039062 17.5625 -43.78125 C 14.132812 -39.757812 12.421875 -34.671875 12.421875 -28.515625 C 12.421875 -22.347656 14.132812 -17.253906 17.5625 -13.234375 C 21.132812 -8.972656 26 -6.84375 32.15625 -6.84375 Z M 32.15625 -6.84375 "/></g></g></g><g fill="#1e3a8a" fill-opacity="1"><g transform="translate(270.068995, 93.186755)"><g><path d="M 40.140625 -39 L 70.25 0 L 59.40625 0 L 34.890625 -32.390625 L 10.484375 0 L -0.34375 0 L 29.765625 -39 L 1.703125 -75.484375 L 12.546875 -75.484375 L 34.890625 -45.84375 L 57.359375 -75.484375 L 68.1875 -75.484375 Z M 40.140625 -39 "/></g></g></g></g></g></svg>