<svg xmlns="http://www.w3.org/2000/svg" xmlns:xlink="http://www.w3.org/1999/xlink" width="500" zoomAndPan="magnify" viewBox="0 0 375 374.999991" height="500" preserveAspectRatio="xMidYMid meet" version="1.0"><defs><clipPath id="477eb0492e"><path d="M 0 0 L 375 0 L 375 291 L 0 291 Z M 0 0 " clip-rule="nonzero"/></clipPath><clipPath id="c2ba6a6019"><path d="M 3 253 L 122 253 L 122 372 L 3 372 Z M 3 253 " clip-rule="nonzero"/></clipPath><clipPath id="96de2d0b3c"><path d="M 62.308594 250.375 L 124.886719 312.953125 L 62.308594 375.535156 L -0.269531 312.953125 Z M 62.308594 250.375 " clip-rule="nonzero"/></clipPath><clipPath id="1d1eff78b8"><path d="M 58.066406 254.617188 L 4.238281 308.445312 C 1.894531 310.789062 1.894531 314.589844 4.238281 316.933594 L 58.066406 370.757812 C 60.410156 373.101562 64.207031 373.101562 66.550781 370.757812 L 120.378906 316.933594 C 121.503906 315.804688 122.136719 314.28125 122.136719 312.6875 C 122.136719 311.097656 121.503906 309.570312 120.378906 308.445312 L 66.550781 254.617188 C 64.207031 252.277344 60.410156 252.277344 58.066406 254.617188 Z M 58.066406 254.617188 " clip-rule="nonzero"/></clipPath><clipPath id="1d46b709d9"><path d="M 62.308594 250.375 L 124.355469 312.425781 L 62.308594 374.472656 L 0.257812 312.425781 Z M 62.308594 250.375 " clip-rule="nonzero"/></clipPath><clipPath id="b40d1d10d3"><path d="M 62.308594 250.375 L 124.355469 312.425781 L 62.308594 374.472656 L 0.257812 312.425781 Z M 62.308594 250.375 " clip-rule="nonzero"/></clipPath><clipPath id="68fed17a54"><path d="M 2 252 L 123 252 L 123 373 L 2 373 Z M 2 252 " clip-rule="nonzero"/></clipPath><clipPath id="0fb6721005"><path d="M 62.308594 250.375 L 124.886719 312.953125 L 62.308594 375.535156 L -0.269531 312.953125 Z M 62.308594 250.375 " clip-rule="nonzero"/></clipPath><clipPath id="2f16db5ee7"><path d="M 58.066406 254.617188 L 4.238281 308.445312 C 1.894531 310.789062 1.894531 314.589844 4.238281 316.933594 L 58.066406 370.757812 C 60.410156 373.101562 64.207031 373.101562 66.550781 370.757812 L 120.378906 316.933594 C 121.503906 315.804688 122.136719 314.28125 122.136719 312.6875 C 122.136719 311.097656 121.503906 309.570312 120.378906 308.445312 L 66.550781 254.617188 C 64.207031 252.277344 60.410156 252.277344 58.066406 254.617188 Z M 58.066406 254.617188 " clip-rule="nonzero"/></clipPath><clipPath id="db1f1094d3"><path d="M 62.308594 250.375 L 124.355469 312.425781 L 62.308594 374.472656 L 0.257812 312.425781 Z M 62.308594 250.375 " clip-rule="nonzero"/></clipPath><clipPath id="4b483aad09"><path d="M 62.308594 250.375 L 124.355469 312.425781 L 62.308594 374.472656 L 0.257812 312.425781 Z M 62.308594 250.375 " clip-rule="nonzero"/></clipPath><clipPath id="463e7bd0fa"><path d="M 165 253 L 284 253 L 284 372 L 165 372 Z M 165 253 " clip-rule="nonzero"/></clipPath><clipPath id="20e7148537"><path d="M 224.785156 250.375 L 287.363281 312.953125 L 224.785156 375.535156 L 162.207031 312.953125 Z M 224.785156 250.375 " clip-rule="nonzero"/></clipPath><clipPath id="bb4c77b133"><path d="M 220.542969 254.617188 L 166.714844 308.445312 C 164.371094 310.789062 164.371094 314.589844 166.714844 316.933594 L 220.542969 370.757812 C 222.886719 373.101562 226.683594 373.101562 229.027344 370.757812 L 282.855469 316.933594 C 283.980469 315.804688 284.613281 314.28125 284.613281 312.6875 C 284.613281 311.097656 283.980469 309.570312 282.855469 308.445312 L 229.027344 254.617188 C 226.683594 252.277344 222.886719 252.277344 220.542969 254.617188 Z M 220.542969 254.617188 " clip-rule="nonzero"/></clipPath><clipPath id="3bb1cdb903"><path d="M 224.785156 250.375 L 286.835938 312.425781 L 224.785156 374.472656 L 162.738281 312.425781 Z M 224.785156 250.375 " clip-rule="nonzero"/></clipPath><clipPath id="608d7adcf5"><path d="M 224.785156 250.375 L 286.835938 312.425781 L 224.785156 374.472656 L 162.738281 312.425781 Z M 224.785156 250.375 " clip-rule="nonzero"/></clipPath><clipPath id="3867b07479"><path d="M 164 252 L 285 252 L 285 373 L 164 373 Z M 164 252 " clip-rule="nonzero"/></clipPath><clipPath id="f57d64ce76"><path d="M 224.785156 250.375 L 287.363281 312.953125 L 224.785156 375.535156 L 162.207031 312.953125 Z M 224.785156 250.375 " clip-rule="nonzero"/></clipPath><clipPath id="58d749beca"><path d="M 220.542969 254.617188 L 166.714844 308.445312 C 164.371094 310.789062 164.371094 314.589844 166.714844 316.933594 L 220.542969 370.757812 C 222.886719 373.101562 226.683594 373.101562 229.027344 370.757812 L 282.855469 316.933594 C 283.980469 315.804688 284.613281 314.28125 284.613281 312.6875 C 284.613281 311.097656 283.980469 309.570312 282.855469 308.445312 L 229.027344 254.617188 C 226.683594 252.277344 222.886719 252.277344 220.542969 254.617188 Z M 220.542969 254.617188 " clip-rule="nonzero"/></clipPath><clipPath id="7977e568db"><path d="M 224.785156 250.375 L 286.835938 312.425781 L 224.785156 374.472656 L 162.738281 312.425781 Z M 224.785156 250.375 " clip-rule="nonzero"/></clipPath><clipPath id="946f269882"><path d="M 224.785156 250.375 L 286.835938 312.425781 L 224.785156 374.472656 L 162.738281 312.425781 Z M 224.785156 250.375 " clip-rule="nonzero"/></clipPath></defs><g clip-path="url(#477eb0492e)"><path fill="#008ae0" d="M 61.039062 92.144531 C 59.402344 92.144531 56.710938 93.132812 55.523438 94.367188 L 2.59375 148.402344 C 0.21875 150.804688 0.222656 153.757812 2.59375 156.125 L 85.796875 235.148438 L 139.832031 289.183594 C 141.03125 290.382812 142.605469 291.375 144.242188 291.375 C 145.453125 291.375 146.601562 290.105469 147.550781 289.183594 L 201.582031 236.25 L 372.515625 65.320312 C 374.917969 62.953125 374.910156 58.871094 372.515625 56.496094 L 318.476562 2.460938 C 316.074219 0.0976562 313.125 0.0625 310.757812 2.460938 L 144.242188 168.976562 L 65.449219 94.367188 C 64.261719 93.167969 62.675781 92.144531 61.039062 92.144531 Z M 61.039062 92.144531 " fill-opacity="1" fill-rule="nonzero"/></g><g clip-path="url(#c2ba6a6019)"><g clip-path="url(#96de2d0b3c)"><g clip-path="url(#1d1eff78b8)"><g clip-path="url(#1d46b709d9)"><g clip-path="url(#b40d1d10d3)"><path fill="#5ce1e6" d="M 92.171875 343.613281 C 91.292969 343.824219 90.40625 343.582031 89.539062 343.335938 C 89.433594 343.914062 88.964844 344.363281 88.460938 344.65625 C 87.953125 344.953125 87.386719 345.136719 86.878906 345.433594 C 86.371094 345.726562 85.867188 346.285156 85.757812 346.859375 C 85.425781 346.554688 84.898438 346.542969 84.472656 346.703125 C 84.050781 346.871094 83.703125 347.175781 83.355469 347.46875 C 83.007812 347.761719 82.632812 348.050781 82.191406 348.15625 L 82.199219 348.164062 C 82.476562 348.808594 82.757812 349.480469 82.710938 350.179688 C 82.695312 350.382812 82.652344 350.589844 82.570312 350.773438 C 82.371094 351.195312 81.976562 351.5 81.542969 351.675781 C 81.113281 351.855469 80.644531 351.917969 80.183594 351.984375 C 80.183594 352.5 80.320312 353.210938 80.089844 353.675781 C 79.941406 353.96875 79.710938 354.214844 79.515625 354.476562 C 78.8125 355.410156 78.476562 356.609375 77.625 357.40625 L 77.625 357.410156 C 77.539062 357.492188 77.40625 357.5 77.289062 357.472656 C 77.175781 357.441406 77.070312 357.386719 76.957031 357.347656 C 76.570312 357.222656 76.144531 357.378906 75.804688 357.609375 C 75.46875 357.839844 75.183594 358.140625 74.84375 358.363281 C 74.144531 358.816406 73.238281 358.84375 72.40625 358.90625 C 72.355469 359.378906 72.300781 359.855469 72.105469 360.285156 C 71.914062 360.714844 71.558594 361.097656 71.097656 361.203125 C 70.535156 361.332031 69.847656 360.976562 69.351562 360.683594 C 69.359375 361.257812 69.355469 361.878906 69.011719 362.339844 C 68.773438 362.65625 68.402344 362.855469 68.160156 363.167969 C 67.949219 363.441406 67.851562 363.785156 67.824219 364.128906 C 67.792969 364.46875 67.832031 364.8125 67.867188 365.15625 C 67.011719 365.324219 66.316406 366.089844 65.882812 366.847656 C 65.449219 367.601562 65.175781 368.4375 64.738281 369.191406 C 64.179688 370.152344 63.351562 370.953125 62.375 371.480469 C 61.113281 370.703125 59.929688 369.523438 59.273438 368.1875 C 58.972656 367.578125 58.753906 366.921875 58.382812 366.351562 C 58.011719 365.777344 57.429688 365.222656 56.753906 365.132812 C 56.867188 364.667969 56.828125 364.164062 56.640625 363.726562 C 56.421875 363.214844 56.023438 362.808594 55.699219 362.359375 C 55.375 361.910156 55.109375 361.3125 55.21875 360.769531 C 54.71875 361.082031 54.140625 361.277344 53.550781 361.328125 C 53.339844 361.34375 53.109375 361.339844 52.941406 361.214844 C 52.8125 361.117188 52.738281 360.96875 52.675781 360.824219 C 52.433594 360.273438 52.28125 359.644531 52.179688 359.050781 C 51.984375 358.835938 51.664062 358.78125 51.371094 358.789062 C 51.082031 358.792969 50.78125 358.84375 50.5 358.78125 C 49.769531 358.613281 49.382812 357.789062 48.703125 357.488281 C 48.144531 357.242188 47.421875 357.28125 46.828125 357.433594 C 46.808594 357.171875 46.660156 356.941406 46.492188 356.742188 C 46.324219 356.542969 46.128906 356.363281 45.992188 356.140625 C 45.78125 355.8125 45.703125 355.414062 45.523438 355.066406 C 45.273438 354.574219 44.824219 354.199219 44.574219 353.703125 C 44.292969 353.144531 44.289062 352.488281 44.289062 351.859375 C 43.605469 351.761719 43.359375 351.644531 42.726562 351.371094 C 42.46875 351.261719 42.207031 351.125 42.0625 350.890625 C 41.945312 350.691406 41.925781 350.449219 41.925781 350.21875 C 41.921875 349.542969 42.082031 348.835938 42.332031 348.207031 C 41.582031 347.964844 41.15625 347.160156 40.457031 346.796875 C 39.964844 346.542969 39.316406 346.523438 38.816406 346.765625 C 38.804688 346.242188 38.378906 345.808594 37.914062 345.566406 C 37.449219 345.320312 36.925781 345.203125 36.460938 344.957031 C 35.832031 344.625 35.332031 344.0625 35.074219 343.398438 L 35.175781 343.296875 C 34.339844 343.785156 33.292969 343.890625 32.378906 343.574219 C 32.121094 343.484375 31.863281 343.355469 31.703125 343.136719 C 31.570312 342.949219 31.515625 342.71875 31.480469 342.492188 C 31.339844 341.667969 31.375 340.816406 31.574219 340.003906 C 30.933594 339.550781 30.285156 339.089844 29.996094 338.359375 C 29.847656 337.988281 29.8125 337.574219 29.644531 337.210938 C 29.382812 336.640625 28.78125 336.242188 28.15625 336.214844 C 28.410156 335.832031 28.398438 335.292969 28.234375 334.863281 C 28.070312 334.433594 27.777344 334.066406 27.488281 333.710938 C 27.199219 333.351562 26.910156 332.984375 26.75 332.550781 C 26.222656 332.976562 25.671875 333.148438 24.996094 333.179688 C 24.726562 333.195312 24.4375 333.167969 24.21875 333.007812 C 24.078125 332.90625 23.980469 332.753906 23.890625 332.601562 C 23.574219 332.050781 23.359375 331.445312 23.261719 330.816406 C 22.464844 330.429688 21.492188 330.695312 20.746094 330.222656 C 20.394531 329.996094 20.144531 329.632812 19.792969 329.410156 C 19.519531 329.234375 19.199219 329.152344 18.910156 328.996094 C 18.40625 328.71875 18.015625 328.222656 17.457031 328.082031 C 17.691406 327.480469 17.582031 326.6875 17.269531 326.125 C 17.085938 325.792969 16.816406 325.511719 16.609375 325.191406 C 16.214844 324.582031 16.050781 323.644531 16.160156 322.929688 C 15.726562 322.910156 15.644531 322.910156 15.222656 322.796875 C 14.800781 322.6875 14.394531 322.464844 14.136719 322.117188 C 13.902344 321.796875 13.808594 321.386719 13.84375 320.992188 C 13.882812 320.601562 14.09375 320.097656 14.335938 319.785156 C 13.730469 319.921875 13.074219 319.726562 12.597656 319.335938 C 12.265625 319.066406 12.011719 318.714844 11.664062 318.476562 C 11.175781 318.144531 10.386719 318.058594 9.835938 318.265625 C 9.738281 317.632812 9.285156 317.109375 8.773438 316.722656 C 7.953125 316.101562 6.964844 315.746094 6.074219 315.230469 C 5.046875 314.636719 3.910156 313.507812 3.515625 312.621094 C 4.042969 311.644531 4.84375 310.816406 5.804688 310.261719 C 6.558594 309.824219 7.398438 309.550781 8.152344 309.117188 C 8.90625 308.683594 9.671875 307.988281 9.839844 307.132812 C 10.183594 307.167969 10.527344 307.207031 10.871094 307.175781 C 11.210938 307.148438 11.554688 307.050781 11.828125 306.839844 C 12.140625 306.597656 12.339844 306.222656 12.660156 305.988281 C 13.117188 305.644531 13.738281 305.640625 14.3125 305.648438 C 14.015625 305.152344 13.664062 304.464844 13.792969 303.902344 C 13.898438 303.441406 14.28125 303.085938 14.710938 302.890625 C 15.140625 302.699219 15.621094 302.644531 16.089844 302.59375 C 16.15625 301.761719 16.179688 300.855469 16.632812 300.15625 C 16.855469 299.816406 17.160156 299.53125 17.386719 299.191406 C 17.617188 298.855469 17.773438 298.429688 17.648438 298.039062 C 17.613281 297.929688 17.554688 297.824219 17.527344 297.707031 C 17.496094 297.59375 17.503906 297.460938 17.585938 297.375 L 17.589844 297.371094 C 18.382812 296.519531 19.585938 296.183594 20.519531 295.484375 C 20.78125 295.285156 21.027344 295.054688 21.320312 294.910156 C 21.785156 294.679688 22.492188 294.816406 23.011719 294.816406 C 23.074219 294.351562 23.140625 293.886719 23.320312 293.453125 C 23.496094 293.023438 23.800781 292.625 24.222656 292.429688 C 24.410156 292.34375 24.613281 292.300781 24.816406 292.289062 C 25.515625 292.238281 26.191406 292.523438 26.832031 292.800781 L 26.839844 292.804688 C 26.949219 292.363281 27.238281 291.992188 27.527344 291.644531 C 27.820312 291.296875 28.128906 290.945312 28.292969 290.523438 C 28.457031 290.101562 28.445312 289.578125 28.136719 289.242188 C 28.714844 289.128906 29.269531 288.628906 29.5625 288.121094 C 29.859375 287.613281 30.042969 287.046875 30.339844 286.539062 C 30.636719 286.03125 31.082031 285.566406 31.660156 285.460938 C 31.414062 284.59375 31.171875 283.707031 31.386719 282.828125 C 31.464844 282.496094 31.621094 282.164062 31.902344 281.972656 C 32.113281 281.828125 32.375 281.773438 32.632812 281.738281 C 33.050781 281.683594 33.472656 281.683594 33.894531 281.730469 C 34.175781 281.761719 34.457031 281.816406 34.738281 281.785156 C 35.019531 281.75 35.308594 281.613281 35.429688 281.355469 C 35.710938 281.003906 36.097656 280.636719 36.5 280.433594 C 36.953125 280.203125 37.484375 280.171875 37.929688 279.929688 C 38.4375 279.65625 38.808594 279.105469 38.847656 278.53125 C 39.113281 278.640625 39.390625 278.75 39.679688 278.730469 C 39.9375 278.714844 40.175781 278.59375 40.402344 278.464844 C 41.027344 278.097656 41.585938 277.628906 42.140625 277.164062 C 42.195312 277.121094 42.253906 277.066406 42.269531 276.996094 C 42.289062 276.929688 42.164062 276.71875 42.09375 276.730469 C 41.664062 276.027344 41.695312 275.074219 42.164062 274.398438 C 42.632812 273.722656 43.519531 273.367188 44.328125 273.527344 C 44.167969 272.839844 44.339844 272.078125 44.664062 271.453125 C 44.988281 270.824219 45.4375 270.277344 45.855469 269.707031 C 46.273438 269.140625 46.660156 268.527344 46.832031 267.847656 C 47.535156 267.945312 48.257812 268.085938 48.851562 267.757812 C 49.289062 267.515625 49.628906 267.132812 50.054688 266.871094 C 50.636719 266.507812 51.371094 266.394531 52.035156 266.570312 C 52.089844 266.101562 52.226562 265.558594 52.4375 265.140625 C 52.652344 264.71875 53.011719 264.355469 53.472656 264.242188 C 54.050781 264.09375 54.722656 264.394531 55.230469 264.710938 L 55.246094 264.726562 C 55.195312 264.371094 55.191406 264.390625 55.25 264.035156 C 55.324219 263.605469 55.558594 263.214844 55.816406 262.863281 C 56.078125 262.507812 56.367188 262.175781 56.578125 261.792969 C 56.796875 261.589844 56.9375 261.222656 56.875 260.929688 C 56.832031 260.738281 56.726562 260.535156 56.796875 260.351562 C 56.84375 260.234375 56.960938 260.152344 57.082031 260.121094 C 57.203125 260.09375 57.359375 260.105469 57.480469 260.144531 C 58.304688 259.269531 58.761719 258.121094 59.363281 257.078125 C 60.101562 255.800781 61.074219 254.664062 62.21875 253.738281 C 63.109375 254.132812 64.273438 255.421875 64.867188 256.449219 C 65.382812 257.339844 65.738281 258.324219 66.359375 259.148438 C 66.746094 259.65625 67.269531 260.109375 67.902344 260.207031 C 67.695312 260.761719 67.777344 261.550781 68.113281 262.035156 C 68.351562 262.386719 68.703125 262.640625 68.972656 262.96875 C 69.363281 263.453125 69.558594 264.105469 69.421875 264.710938 C 69.734375 264.46875 70.234375 264.257812 70.632812 264.21875 C 71.023438 264.183594 71.433594 264.277344 71.753906 264.511719 C 72.105469 264.769531 72.324219 265.175781 72.433594 265.597656 C 72.550781 266.015625 72.550781 266.097656 72.566406 266.53125 C 73.285156 266.425781 74.222656 266.585938 74.832031 266.980469 C 75.148438 267.191406 75.429688 267.457031 75.761719 267.640625 C 76.328125 267.957031 77.113281 268.066406 77.71875 267.828125 C 77.863281 268.386719 78.359375 268.777344 78.632812 269.285156 C 78.789062 269.570312 78.871094 269.890625 79.046875 270.167969 C 79.273438 270.519531 79.636719 270.769531 79.859375 271.117188 C 80.335938 271.867188 80.0625 272.839844 80.453125 273.632812 C 81.082031 273.734375 81.691406 273.945312 82.242188 274.265625 C 82.394531 274.351562 82.542969 274.449219 82.648438 274.59375 C 82.808594 274.808594 82.835938 275.101562 82.820312 275.371094 C 82.785156 276.042969 82.613281 276.597656 82.191406 277.121094 C 82.621094 277.28125 82.988281 277.574219 83.347656 277.863281 C 83.707031 278.152344 84.070312 278.441406 84.5 278.609375 C 84.929688 278.773438 85.46875 278.78125 85.851562 278.527344 C 85.878906 279.15625 86.28125 279.753906 86.847656 280.015625 C 87.214844 280.1875 87.625 280.222656 87.996094 280.371094 C 88.722656 280.660156 89.1875 281.308594 89.640625 281.945312 C 90.457031 281.746094 91.304688 281.714844 92.128906 281.851562 C 92.359375 281.890625 92.585938 281.941406 92.773438 282.078125 C 92.992188 282.238281 93.121094 282.496094 93.210938 282.75 C 93.527344 283.664062 93.425781 284.714844 92.9375 285.550781 L 93.035156 285.449219 C 93.699219 285.703125 94.265625 286.207031 94.59375 286.835938 C 94.839844 287.300781 94.960938 287.820312 95.203125 288.285156 C 95.449219 288.75 95.878906 289.175781 96.402344 289.191406 C 96.164062 289.6875 96.179688 290.335938 96.433594 290.828125 C 96.796875 291.527344 97.601562 291.957031 97.84375 292.707031 C 98.472656 292.453125 99.179688 292.296875 99.855469 292.296875 C 100.089844 292.296875 100.328125 292.316406 100.527344 292.4375 C 100.765625 292.582031 100.898438 292.84375 101.007812 293.097656 C 101.28125 293.730469 101.398438 293.980469 101.496094 294.664062 C 102.125 294.660156 102.777344 294.664062 103.34375 294.949219 C 103.835938 295.199219 104.210938 295.644531 104.703125 295.898438 C 105.050781 296.078125 105.449219 296.152344 105.78125 296.363281 C 106 296.503906 106.179688 296.699219 106.378906 296.863281 C 106.582031 297.035156 106.8125 297.179688 107.074219 297.203125 C 106.921875 297.792969 106.878906 298.515625 107.128906 299.074219 C 107.429688 299.757812 108.253906 300.144531 108.417969 300.871094 C 108.484375 301.15625 108.429688 301.453125 108.425781 301.742188 C 108.421875 302.035156 108.472656 302.355469 108.6875 302.550781 C 109.28125 302.65625 109.910156 302.8125 110.460938 303.046875 C 110.605469 303.113281 110.753906 303.183594 110.851562 303.3125 C 110.980469 303.480469 110.984375 303.710938 110.964844 303.921875 C 110.914062 304.511719 110.722656 305.089844 110.40625 305.589844 C 110.949219 305.484375 111.546875 305.746094 111.996094 306.070312 C 112.445312 306.398438 112.851562 306.792969 113.363281 307.011719 C 113.804688 307.199219 114.304688 307.238281 114.769531 307.125 C 114.859375 307.800781 115.414062 308.386719 115.988281 308.753906 C 116.5625 309.125 117.214844 309.34375 117.828125 309.644531 C 119.160156 310.300781 120.488281 311.519531 121.269531 312.785156 C 120.34375 313.933594 119.207031 314.90625 117.929688 315.644531 C 116.886719 316.242188 115.738281 316.699219 114.867188 317.523438 C 114.902344 317.644531 114.914062 317.796875 114.886719 317.925781 C 114.855469 318.050781 114.773438 318.164062 114.65625 318.207031 C 114.472656 318.28125 114.269531 318.175781 114.078125 318.132812 C 113.785156 318.070312 113.421875 318.207031 113.214844 318.425781 C 112.832031 318.640625 112.5 318.929688 112.148438 319.191406 C 111.792969 319.449219 111.40625 319.683594 110.972656 319.757812 C 110.621094 319.816406 110.636719 319.8125 110.28125 319.757812 L 110.300781 319.777344 C 110.617188 320.285156 110.910156 320.953125 110.769531 321.535156 C 110.652344 321.992188 110.289062 322.355469 109.871094 322.570312 C 109.449219 322.78125 108.90625 322.917969 108.4375 322.972656 C 108.613281 323.636719 108.5 324.371094 108.140625 324.953125 C 107.875 325.375 107.492188 325.714844 107.253906 326.152344 C 106.925781 326.75 107.0625 327.472656 107.164062 328.175781 C 106.476562 328.34375 105.871094 328.734375 105.300781 329.152344 C 104.734375 329.566406 104.183594 330.019531 103.558594 330.34375 C 102.929688 330.667969 102.171875 330.839844 101.484375 330.679688 C 101.644531 331.488281 101.285156 332.375 100.609375 332.84375 C 99.9375 333.3125 98.980469 333.34375 98.28125 332.910156 C 98.289062 332.839844 98.082031 332.71875 98.011719 332.738281 C 97.941406 332.753906 97.890625 332.808594 97.84375 332.863281 C 97.378906 333.421875 96.910156 333.980469 96.542969 334.605469 C 96.414062 334.828125 96.296875 335.070312 96.277344 335.328125 C 96.257812 335.613281 96.367188 335.894531 96.476562 336.160156 C 95.902344 336.199219 95.351562 336.570312 95.078125 337.078125 C 94.835938 337.523438 94.804688 338.054688 94.578125 338.507812 C 94.375 338.90625 94.007812 339.296875 93.652344 339.578125 C 93.398438 339.699219 93.257812 339.988281 93.226562 340.265625 C 93.191406 340.546875 93.246094 340.832031 93.277344 341.113281 C 93.324219 341.53125 93.324219 341.957031 93.269531 342.375 C 93.238281 342.632812 93.183594 342.894531 93.035156 343.105469 C 92.835938 343.375 92.503906 343.53125 92.171875 343.613281 Z M 92.171875 343.613281 " fill-opacity="1" fill-rule="nonzero"/></g></g></g></g></g><g clip-path="url(#68fed17a54)"><g clip-path="url(#0fb6721005)"><g clip-path="url(#2f16db5ee7)"><g clip-path="url(#db1f1094d3)"><g clip-path="url(#4b483aad09)"><path fill="#008ae0" d="M 62.308594 250.375 L 124.613281 312.679688 L 62.308594 374.988281 L 0.00390625 312.679688 Z M 62.308594 250.375 " fill-opacity="1" fill-rule="nonzero"/></g></g></g></g></g><g clip-path="url(#463e7bd0fa)"><g clip-path="url(#20e7148537)"><g clip-path="url(#bb4c77b133)"><g clip-path="url(#3bb1cdb903)"><g clip-path="url(#608d7adcf5)"><path fill="#5ce1e6" d="M 254.648438 343.613281 C 253.773438 343.824219 252.886719 343.582031 252.015625 343.335938 C 251.910156 343.914062 251.445312 344.363281 250.9375 344.65625 C 250.429688 344.953125 249.863281 345.136719 249.355469 345.433594 C 248.847656 345.726562 248.347656 346.285156 248.238281 346.859375 C 247.902344 346.554688 247.378906 346.542969 246.953125 346.703125 C 246.527344 346.871094 246.179688 347.175781 245.832031 347.46875 C 245.484375 347.761719 245.109375 348.050781 244.671875 348.15625 L 244.675781 348.164062 C 244.953125 348.808594 245.238281 349.480469 245.1875 350.179688 C 245.175781 350.382812 245.128906 350.589844 245.046875 350.773438 C 244.851562 351.195312 244.453125 351.5 244.023438 351.675781 C 243.589844 351.855469 243.121094 351.917969 242.660156 351.984375 C 242.664062 352.5 242.796875 353.210938 242.566406 353.675781 C 242.421875 353.96875 242.191406 354.214844 241.992188 354.476562 C 241.289062 355.410156 240.957031 356.609375 240.105469 357.40625 L 240.101562 357.410156 C 240.015625 357.492188 239.882812 357.5 239.769531 357.472656 C 239.652344 357.441406 239.546875 357.386719 239.4375 357.347656 C 239.046875 357.222656 238.621094 357.378906 238.285156 357.609375 C 237.945312 357.839844 237.660156 358.140625 237.320312 358.363281 C 236.621094 358.816406 235.714844 358.84375 234.882812 358.90625 C 234.832031 359.378906 234.777344 359.855469 234.585938 360.285156 C 234.390625 360.714844 234.035156 361.097656 233.574219 361.203125 C 233.011719 361.332031 232.324219 360.976562 231.828125 360.683594 C 231.835938 361.257812 231.832031 361.878906 231.492188 362.339844 C 231.25 362.65625 230.882812 362.855469 230.636719 363.167969 C 230.429688 363.441406 230.328125 363.785156 230.300781 364.128906 C 230.273438 364.46875 230.308594 364.8125 230.34375 365.15625 C 229.492188 365.324219 228.792969 366.089844 228.359375 366.847656 C 227.925781 367.601562 227.65625 368.4375 227.214844 369.191406 C 226.660156 370.152344 225.832031 370.953125 224.855469 371.480469 C 223.589844 370.703125 222.40625 369.523438 221.75 368.1875 C 221.453125 367.578125 221.230469 366.921875 220.859375 366.351562 C 220.488281 365.777344 219.90625 365.222656 219.230469 365.132812 C 219.34375 364.667969 219.304688 364.164062 219.117188 363.726562 C 218.898438 363.214844 218.503906 362.808594 218.175781 362.359375 C 217.851562 361.910156 217.589844 361.3125 217.695312 360.769531 C 217.195312 361.082031 216.617188 361.277344 216.027344 361.328125 C 215.816406 361.34375 215.589844 361.339844 215.417969 361.214844 C 215.289062 361.117188 215.21875 360.96875 215.152344 360.824219 C 214.914062 360.273438 214.757812 359.644531 214.65625 359.050781 C 214.460938 358.835938 214.140625 358.78125 213.847656 358.789062 C 213.558594 358.792969 213.257812 358.84375 212.976562 358.78125 C 212.25 358.613281 211.863281 357.789062 211.179688 357.488281 C 210.621094 357.242188 209.898438 357.28125 209.308594 357.433594 C 209.285156 357.171875 209.136719 356.941406 208.96875 356.742188 C 208.800781 356.542969 208.609375 356.363281 208.46875 356.140625 C 208.257812 355.8125 208.179688 355.414062 208.003906 355.066406 C 207.75 354.574219 207.304688 354.199219 207.054688 353.703125 C 206.769531 353.144531 206.765625 352.488281 206.769531 351.859375 C 206.085938 351.761719 205.839844 351.644531 205.203125 351.371094 C 204.949219 351.261719 204.6875 351.125 204.542969 350.890625 C 204.421875 350.691406 204.402344 350.449219 204.402344 350.21875 C 204.398438 349.542969 204.558594 348.835938 204.8125 348.207031 C 204.0625 347.964844 203.632812 347.160156 202.933594 346.796875 C 202.441406 346.542969 201.792969 346.523438 201.296875 346.765625 C 201.285156 346.242188 200.855469 345.808594 200.390625 345.566406 C 199.925781 345.320312 199.40625 345.203125 198.941406 344.957031 C 198.3125 344.625 197.808594 344.0625 197.554688 343.398438 L 197.65625 343.296875 C 196.820312 343.785156 195.769531 343.890625 194.855469 343.574219 C 194.597656 343.484375 194.34375 343.355469 194.183594 343.136719 C 194.046875 342.949219 193.992188 342.71875 193.957031 342.492188 C 193.820312 341.667969 193.851562 340.816406 194.050781 340.003906 C 193.414062 339.550781 192.761719 339.089844 192.476562 338.359375 C 192.328125 337.988281 192.289062 337.574219 192.121094 337.210938 C 191.859375 336.640625 191.261719 336.242188 190.632812 336.214844 C 190.886719 335.832031 190.878906 335.292969 190.714844 334.863281 C 190.546875 334.433594 190.253906 334.066406 189.964844 333.710938 C 189.675781 333.351562 189.386719 332.984375 189.226562 332.550781 C 188.703125 332.976562 188.148438 333.148438 187.476562 333.179688 C 187.203125 333.195312 186.917969 333.167969 186.695312 333.007812 C 186.554688 332.90625 186.457031 332.753906 186.371094 332.601562 C 186.054688 332.050781 185.835938 331.445312 185.738281 330.816406 C 184.941406 330.429688 183.972656 330.695312 183.222656 330.222656 C 182.875 329.996094 182.625 329.632812 182.273438 329.410156 C 181.996094 329.234375 181.675781 329.152344 181.390625 328.996094 C 180.882812 328.71875 180.492188 328.222656 179.933594 328.082031 C 180.167969 327.480469 180.058594 326.6875 179.746094 326.125 C 179.5625 325.792969 179.292969 325.511719 179.085938 325.191406 C 178.691406 324.582031 178.527344 323.644531 178.636719 322.929688 C 178.203125 322.910156 178.121094 322.910156 177.699219 322.796875 C 177.277344 322.6875 176.875 322.464844 176.617188 322.117188 C 176.378906 321.796875 176.285156 321.386719 176.324219 320.992188 C 176.359375 320.601562 176.574219 320.097656 176.8125 319.785156 C 176.210938 319.921875 175.554688 319.726562 175.074219 319.335938 C 174.746094 319.066406 174.488281 318.714844 174.140625 318.476562 C 173.652344 318.144531 172.867188 318.058594 172.3125 318.265625 C 172.21875 317.632812 171.761719 317.109375 171.25 316.722656 C 170.429688 316.101562 169.445312 315.746094 168.554688 315.230469 C 167.527344 314.636719 166.386719 313.507812 165.992188 312.621094 C 166.519531 311.644531 167.324219 310.816406 168.28125 310.261719 C 169.035156 309.824219 169.875 309.550781 170.628906 309.117188 C 171.382812 308.683594 172.152344 307.988281 172.320312 307.132812 C 172.660156 307.167969 173.003906 307.207031 173.347656 307.175781 C 173.691406 307.148438 174.03125 307.050781 174.304688 306.839844 C 174.621094 306.597656 174.816406 306.222656 175.136719 305.988281 C 175.597656 305.644531 176.214844 305.640625 176.789062 305.648438 C 176.496094 305.152344 176.140625 304.464844 176.269531 303.902344 C 176.375 303.441406 176.757812 303.085938 177.191406 302.890625 C 177.621094 302.699219 178.097656 302.644531 178.566406 302.59375 C 178.632812 301.761719 178.65625 300.855469 179.113281 300.15625 C 179.332031 299.816406 179.636719 299.53125 179.867188 299.191406 C 180.097656 298.855469 180.25 298.429688 180.125 298.039062 C 180.089844 297.929688 180.03125 297.824219 180.003906 297.707031 C 179.972656 297.59375 179.984375 297.460938 180.066406 297.375 L 180.066406 297.371094 C 180.859375 296.519531 182.0625 296.183594 182.996094 295.484375 C 183.257812 295.285156 183.503906 295.054688 183.796875 294.910156 C 184.261719 294.679688 184.96875 294.816406 185.488281 294.816406 C 185.550781 294.351562 185.621094 293.886719 185.796875 293.453125 C 185.972656 293.023438 186.277344 292.625 186.699219 292.429688 C 186.886719 292.34375 187.09375 292.300781 187.296875 292.289062 C 187.992188 292.238281 188.667969 292.523438 189.308594 292.800781 L 189.316406 292.804688 C 189.425781 292.363281 189.714844 291.992188 190.003906 291.644531 C 190.296875 291.296875 190.605469 290.945312 190.769531 290.523438 C 190.933594 290.101562 190.921875 289.578125 190.613281 289.242188 C 191.191406 289.128906 191.746094 288.628906 192.042969 288.121094 C 192.335938 287.613281 192.519531 287.046875 192.816406 286.539062 C 193.113281 286.03125 193.5625 285.566406 194.136719 285.460938 C 193.890625 284.59375 193.648438 283.707031 193.863281 282.828125 C 193.941406 282.496094 194.101562 282.164062 194.378906 281.972656 C 194.589844 281.828125 194.851562 281.773438 195.109375 281.738281 C 195.527344 281.683594 195.953125 281.683594 196.371094 281.730469 C 196.652344 281.761719 196.9375 281.816406 197.21875 281.785156 C 197.496094 281.75 197.785156 281.613281 197.90625 281.355469 C 198.1875 281.003906 198.574219 280.636719 198.976562 280.433594 C 199.429688 280.203125 199.960938 280.171875 200.40625 279.929688 C 200.914062 279.65625 201.285156 279.105469 201.324219 278.53125 C 201.589844 278.640625 201.871094 278.75 202.15625 278.730469 C 202.414062 278.714844 202.65625 278.59375 202.878906 278.464844 C 203.503906 278.097656 204.066406 277.628906 204.621094 277.164062 C 204.675781 277.121094 204.734375 277.066406 204.75 276.996094 C 204.765625 276.929688 204.644531 276.71875 204.574219 276.730469 C 204.144531 276.027344 204.171875 275.074219 204.640625 274.398438 C 205.113281 273.722656 205.996094 273.367188 206.804688 273.527344 C 206.648438 272.839844 206.816406 272.078125 207.140625 271.453125 C 207.464844 270.824219 207.917969 270.277344 208.332031 269.707031 C 208.75 269.140625 209.140625 268.527344 209.308594 267.847656 C 210.011719 267.945312 210.734375 268.085938 211.332031 267.757812 C 211.765625 267.515625 212.109375 267.132812 212.53125 266.871094 C 213.113281 266.507812 213.847656 266.394531 214.511719 266.570312 C 214.566406 266.101562 214.703125 265.558594 214.914062 265.140625 C 215.128906 264.71875 215.492188 264.355469 215.949219 264.242188 C 216.527344 264.09375 217.199219 264.394531 217.707031 264.710938 L 217.726562 264.726562 C 217.671875 264.371094 217.671875 264.390625 217.730469 264.035156 C 217.800781 263.605469 218.035156 263.214844 218.292969 262.863281 C 218.554688 262.507812 218.84375 262.175781 219.058594 261.792969 C 219.277344 261.589844 219.414062 261.222656 219.351562 260.929688 C 219.308594 260.738281 219.207031 260.535156 219.277344 260.351562 C 219.324219 260.234375 219.4375 260.152344 219.558594 260.121094 C 219.683594 260.09375 219.835938 260.105469 219.960938 260.144531 C 220.78125 259.269531 221.238281 258.121094 221.839844 257.078125 C 222.578125 255.800781 223.550781 254.664062 224.699219 253.738281 C 225.585938 254.132812 226.753906 255.421875 227.347656 256.449219 C 227.859375 257.339844 228.21875 258.324219 228.839844 259.148438 C 229.222656 259.65625 229.746094 260.109375 230.382812 260.207031 C 230.171875 260.761719 230.253906 261.550781 230.589844 262.035156 C 230.832031 262.386719 231.183594 262.640625 231.449219 262.96875 C 231.839844 263.453125 232.039062 264.105469 231.898438 264.710938 C 232.214844 264.46875 232.714844 264.257812 233.109375 264.21875 C 233.503906 264.183594 233.914062 264.277344 234.230469 264.511719 C 234.582031 264.769531 234.800781 265.175781 234.914062 265.597656 C 235.027344 266.015625 235.027344 266.097656 235.042969 266.53125 C 235.761719 266.425781 236.699219 266.585938 237.308594 266.980469 C 237.625 267.191406 237.90625 267.457031 238.238281 267.640625 C 238.804688 267.957031 239.59375 268.066406 240.195312 267.828125 C 240.339844 268.386719 240.835938 268.777344 241.109375 269.285156 C 241.265625 269.570312 241.351562 269.890625 241.527344 270.167969 C 241.75 270.519531 242.113281 270.769531 242.335938 271.117188 C 242.8125 271.867188 242.542969 272.839844 242.933594 273.632812 C 243.558594 273.734375 244.167969 273.945312 244.71875 274.265625 C 244.871094 274.351562 245.019531 274.449219 245.125 274.59375 C 245.285156 274.808594 245.3125 275.101562 245.296875 275.371094 C 245.261719 276.042969 245.089844 276.597656 244.667969 277.121094 C 245.101562 277.28125 245.46875 277.574219 245.824219 277.863281 C 246.183594 278.152344 246.546875 278.441406 246.980469 278.609375 C 247.410156 278.773438 247.945312 278.78125 248.332031 278.527344 C 248.355469 279.15625 248.757812 279.753906 249.328125 280.015625 C 249.691406 280.1875 250.101562 280.222656 250.476562 280.371094 C 251.203125 280.660156 251.664062 281.308594 252.121094 281.945312 C 252.933594 281.746094 253.785156 281.714844 254.609375 281.851562 C 254.835938 281.890625 255.0625 281.941406 255.25 282.078125 C 255.472656 282.238281 255.601562 282.496094 255.6875 282.75 C 256.003906 283.664062 255.902344 284.714844 255.414062 285.550781 L 255.511719 285.449219 C 256.175781 285.703125 256.742188 286.207031 257.074219 286.835938 C 257.316406 287.300781 257.4375 287.820312 257.679688 288.285156 C 257.925781 288.75 258.355469 289.175781 258.882812 289.191406 C 258.640625 289.6875 258.65625 290.335938 258.910156 290.828125 C 259.273438 291.527344 260.078125 291.957031 260.320312 292.707031 C 260.949219 292.453125 261.65625 292.296875 262.335938 292.296875 C 262.566406 292.296875 262.808594 292.316406 263.003906 292.4375 C 263.242188 292.582031 263.375 292.84375 263.484375 293.097656 C 263.757812 293.730469 263.875 293.980469 263.972656 294.664062 C 264.601562 294.660156 265.257812 294.664062 265.820312 294.949219 C 266.3125 295.199219 266.6875 295.644531 267.179688 295.898438 C 267.527344 296.078125 267.925781 296.152344 268.257812 296.363281 C 268.476562 296.503906 268.65625 296.699219 268.859375 296.863281 C 269.058594 297.035156 269.289062 297.179688 269.550781 297.203125 C 269.398438 297.792969 269.355469 298.515625 269.605469 299.074219 C 269.910156 299.757812 270.734375 300.144531 270.894531 300.871094 C 270.960938 301.15625 270.910156 301.453125 270.902344 301.742188 C 270.898438 302.035156 270.949219 302.355469 271.167969 302.550781 C 271.757812 302.65625 272.386719 302.8125 272.9375 303.046875 C 273.085938 303.113281 273.234375 303.183594 273.328125 303.3125 C 273.457031 303.480469 273.460938 303.710938 273.441406 303.921875 C 273.394531 304.511719 273.199219 305.089844 272.882812 305.589844 C 273.425781 305.484375 274.027344 305.746094 274.472656 306.070312 C 274.925781 306.398438 275.332031 306.792969 275.839844 307.011719 C 276.28125 307.199219 276.78125 307.238281 277.246094 307.125 C 277.335938 307.800781 277.890625 308.386719 278.464844 308.753906 C 279.039062 309.125 279.691406 309.34375 280.304688 309.644531 C 281.636719 310.300781 282.96875 311.519531 283.746094 312.785156 C 282.820312 313.933594 281.683594 314.90625 280.40625 315.644531 C 279.363281 316.242188 278.21875 316.699219 277.34375 317.523438 C 277.382812 317.644531 277.394531 317.796875 277.363281 317.925781 C 277.335938 318.050781 277.253906 318.164062 277.136719 318.207031 C 276.949219 318.28125 276.75 318.175781 276.554688 318.132812 C 276.261719 318.070312 275.898438 318.207031 275.695312 318.425781 C 275.3125 318.640625 274.980469 318.929688 274.625 319.191406 C 274.269531 319.449219 273.882812 319.683594 273.453125 319.757812 C 273.097656 319.816406 273.117188 319.8125 272.761719 319.757812 L 272.777344 319.777344 C 273.09375 320.285156 273.390625 320.953125 273.246094 321.535156 C 273.128906 321.992188 272.765625 322.355469 272.347656 322.570312 C 271.925781 322.78125 271.382812 322.917969 270.917969 322.972656 C 271.089844 323.636719 270.980469 324.371094 270.617188 324.953125 C 270.355469 325.375 269.972656 325.714844 269.730469 326.152344 C 269.402344 326.75 269.539062 327.472656 269.640625 328.175781 C 268.953125 328.34375 268.347656 328.734375 267.777344 329.152344 C 267.210938 329.566406 266.660156 330.019531 266.035156 330.34375 C 265.410156 330.667969 264.648438 330.839844 263.960938 330.679688 C 264.121094 331.488281 263.761719 332.375 263.089844 332.84375 C 262.414062 333.3125 261.460938 333.34375 260.757812 332.910156 C 260.765625 332.839844 260.558594 332.71875 260.488281 332.738281 C 260.421875 332.753906 260.371094 332.808594 260.320312 332.863281 C 259.855469 333.421875 259.390625 333.980469 259.023438 334.605469 C 258.890625 334.828125 258.773438 335.070312 258.753906 335.328125 C 258.734375 335.613281 258.847656 335.894531 258.953125 336.160156 C 258.378906 336.199219 257.828125 336.570312 257.554688 337.078125 C 257.3125 337.523438 257.28125 338.054688 257.054688 338.507812 C 256.851562 338.90625 256.484375 339.296875 256.132812 339.578125 C 255.875 339.699219 255.734375 339.988281 255.703125 340.265625 C 255.667969 340.546875 255.726562 340.832031 255.757812 341.113281 C 255.804688 341.53125 255.800781 341.957031 255.746094 342.375 C 255.714844 342.632812 255.660156 342.894531 255.511719 343.105469 C 255.3125 343.375 254.980469 343.53125 254.648438 343.613281 Z M 254.648438 343.613281 " fill-opacity="1" fill-rule="nonzero"/></g></g></g></g></g><g clip-path="url(#3867b07479)"><g clip-path="url(#f57d64ce76)"><g clip-path="url(#58d749beca)"><g clip-path="url(#7977e568db)"><g clip-path="url(#946f269882)"><path fill="#008ae0" d="M 224.785156 250.375 L 287.089844 312.679688 L 224.785156 374.988281 L 162.480469 312.679688 Z M 224.785156 250.375 " fill-opacity="1" fill-rule="nonzero"/></g></g></g></g></g></svg>